<svg width="146" height="74" viewBox="0 0 146 74" fill="none" xmlns="http://www.w3.org/2000/svg">
<path d="M145.5 67.4596C145.299 59.7763 143.141 51.465 141.732 46.0381C140.898 42.6679 140.237 40.4399 140.61 40.1544C140.61 40.1544 140.898 40.9826 141.646 41.4683C142.221 41.8395 143.141 42.0394 144.465 41.2679C145.126 40.8967 145.414 38.8402 144.09 37.8123C143.889 37.6119 142.681 36.9839 141.444 37.3553C140.984 37.4409 140.495 37.7267 140.121 38.0979C136.928 41.1825 140.955 49.1227 140.869 59.2334C139.172 57.5483 133.706 53.15 133.706 53.15V23.2174C135.404 21.2468 138.222 19.9329 140.409 21.1609C140.409 21.1609 137.964 23.0175 140.323 25.1883C141.07 25.9309 143.257 25.5597 143.89 24.0743C144.091 23.7029 144.925 21.8179 142.566 19.9616C140.208 17.9907 136.727 18.4766 133.62 20.7898V20.7037C133.62 14.3345 133.535 9.8501 133.535 3.68086C133.535 3.68086 137.504 3.88103 139.575 3.88103C139.949 3.88103 140.323 4.08096 140.61 4.53775C141.186 5.28009 141.646 6.50863 142.221 8.0794C142.423 8.53642 142.969 8.36495 142.969 7.99378C143.055 5.56635 142.969 1.33905 143.055 0.710556C143.141 0.0538338 142.221 0.339386 141.646 0.254002H128.932C128.098 0.254002 127.235 0.254003 126.286 0.168384C125.826 0.168384 125.337 0.453936 125.826 0.739488C126.027 0.825107 126.401 1.02504 126.66 1.19651C127.034 1.48206 127.494 1.85347 127.695 2.51043V35.9847C127.781 50.2084 127.983 49.2659 127.781 50.1228C127.206 51.1512 123.927 50.323 124.301 51.6077C128.155 55.0638 133.621 58.8912 137.964 63.0324L141.445 66.6884C141.818 67.0598 142.106 67.5166 142.394 67.9167C144.666 71.0013 141.646 72.6864 142.681 72.7724C142.969 72.7724 144.177 72.3157 144.839 70.9157C145.126 70.3443 145.299 69.6874 145.414 69.0591C145.5 68.4878 145.5 68.0305 145.5 67.4596ZM84.1753 0.396073H80.0337C79.2856 0.396073 79.458 0.767479 79.8318 0.853097C80.2921 1.13865 80.4934 1.2245 80.2921 1.59544C78.0195 7.47936 75.5744 12.5349 74.8273 14.5057C73.2158 10.1928 71.2601 5.53719 69.7358 1.96684C69.5345 1.51006 69.822 1.13865 70.1961 1.02433C70.8577 0.824401 71.1452 0.452995 70.2823 0.452995H62.9475C62.4873 0.452995 62.4873 0.824401 62.9475 1.02433C63.6091 1.2245 63.6954 1.39574 64.2708 2.25287C65.6802 4.30912 70.1098 14.506 70.9725 17.2192V30.9572C70.9725 31.8999 69.7358 32.2709 69.1893 32.6423C68.7291 32.9278 69.1893 33.2992 69.6496 33.2139C72.3822 32.6423 74.7408 32.6423 77.6457 33.2139C78.0199 33.2992 78.3073 32.9283 77.7321 32.6423C77.2719 32.2709 76.3225 31.8141 76.3225 31.0428V17.1907C76.3225 17.1907 80.0907 8.02224 82.8232 2.22441C83.0245 1.853 83.3988 1.11042 83.8586 0.995873C84.8369 0.767243 84.9233 0.396073 84.1753 0.396073ZM39.4475 0.196375C36.6286 0.281758 34.0686 0.281758 30.8757 0.196375C30.4155 0.110756 30.1279 0.481927 30.7895 0.767714C31.2498 1.13912 32.2852 1.59591 32.2852 2.36718V41.7541C32.2852 42.7822 30.962 43.8959 30.4155 44.4675C29.9552 45.0386 30.4155 45.1242 30.8757 44.8387C31.8249 44.1817 38.4983 40.7259 39.3612 40.3545C39.7353 40.2689 40.1091 39.6976 39.4475 39.612C38.6134 39.3264 37.9518 39.412 37.9518 38.6694V26.7875V2.19571C38.038 1.2532 39.275 0.882029 39.8215 0.596242C40.368 0.396073 39.9077 0.196375 39.4475 0.196375ZM101.146 0.853097C102.095 -0.260885 101.146 -0.0894126 100.484 0.281523C100.398 0.367141 98.989 0.738547 98.3274 0.481691C96.4572 -0.260885 92.4883 0.196139 90.4168 1.79537C84.5782 6.47969 83.4561 14.2484 84.1177 21.3319C84.5779 26.9301 86.4763 33.8708 91.9416 35.9271C94.76 36.9554 98.3553 36.8698 100.714 34.6132C102.584 32.8427 104.108 27.8728 102.584 25.0735C102.21 24.3309 101.635 24.8736 101.635 25.6448C101.721 27.7013 100.599 30.2151 99.1901 31.7285C98.356 32.671 96.3712 33.5853 94.6742 32.7568C90.82 30.7862 90.5326 25.5592 90.4459 21.3322C90.2441 15.1627 90.5319 4.50929 95.8247 3.36661C101.664 2.13855 102.785 10.7642 99.8804 8.70766C99.4201 8.42211 98.1834 8.13655 96.9461 8.99321C95.8247 9.82141 95.5369 11.6208 96.1985 12.9347C97.0324 14.7057 100.053 15.5626 101.837 13.8775C102.958 12.8491 103.246 12.4779 103.619 10.7928C104.454 7.50829 102.584 4.70899 101.347 2.93805C100.484 1.59591 101.232 0.681625 101.146 0.853097ZM58.8344 0.853097C59.7835 -0.260885 58.8344 -0.0894126 58.1728 0.281523C58.0865 0.367141 56.8498 0.853097 56.1017 0.56731C54.232 -0.175266 50.3489 0.195904 48.3641 1.79537C42.525 6.47969 41.202 14.2484 41.7772 21.3319C42.2374 26.9301 44.0495 34.2422 49.601 35.9271C52.4199 36.7553 56.0155 35.9271 58.259 33.4996C60.5314 31.0717 61.5668 26.6734 60.0425 24.3312C59.8411 24.1312 59.4671 24.4168 59.5822 24.7023C59.7835 26.7588 59.1219 29.2723 57.5974 30.7003C56.936 31.2717 54.2896 32.6712 52.5926 31.9286C48.6232 30.1582 48.3643 25.388 48.2494 21.275C48.0481 15.1055 48.3356 4.45213 53.7145 3.30969C60.0138 1.99578 60.8767 10.8789 57.7703 8.65074C57.3101 8.36518 56.0731 8.07963 54.8363 8.93629C53.7145 9.76448 53.4269 11.5641 54.0885 12.878C54.9225 14.6485 57.9428 15.5056 59.7262 13.8205C60.8481 12.7924 61.1357 12.421 61.5097 10.7359C62.2575 7.56545 60.3878 4.73792 59.1511 2.96722C58.259 1.59591 59.0357 0.681625 58.8344 0.853097ZM120.533 30.2435C121.109 30.6145 122.029 30.8147 123.352 30.0434C124.013 29.672 124.301 27.6155 122.978 26.5876C122.776 26.3874 121.568 25.7594 120.332 26.1306C119.871 26.2162 119.382 26.502 119.008 26.9588C116.189 29.6722 118.922 36.0414 119.67 44.353C117.8 42.5823 115.902 41.5539 113.63 40.1544L113.716 2.56688C113.716 1.62413 114.55 1.53852 115.211 0.967177C116.16 0.395838 115.413 0.224836 115.125 0.224836C111.817 0.310219 109.372 0.310219 106.553 0.224836C106.093 0.224836 105.604 0.596006 106.093 0.881558C106.754 1.33835 107.876 1.4529 107.963 2.48103C107.963 3.70909 108.164 37.2692 107.877 38.4977C107.589 39.4403 106.007 38.9543 105.432 39.1547C104.972 39.3546 105.058 39.8117 105.346 39.9829C105.432 40.1828 106.007 40.3541 106.093 40.3541C111.846 42.7817 114.665 44.01 119.469 47.9231C120.13 48.4944 122.201 50.2651 122.575 50.5507C122.777 50.6365 123.985 49.1516 123.151 44.667L122.949 43.7245C122.287 40.3541 121.454 37.2694 120.792 34.7559C119.958 31.3855 119.296 29.1578 119.67 28.872C119.584 28.8153 119.871 29.672 120.533 30.2435ZM26.9926 32.0996C26.2447 28.4437 24.634 26.1016 21.0673 25.559C20.8659 25.559 20.607 25.1876 20.7797 24.9874C22.937 22.9309 25.2956 20.3033 26.3312 17.4186C28.9774 9.84963 24.7204 0.481456 18.1335 0.595771H3.26247C3.3487 0.595771 3.26247 1.16711 3.26247 1.25273C4.38433 1.53828 5.33351 2.8522 5.33351 3.88032V23.9875C5.53462 26.8731 2.39952 29.015 0.529831 29.8434C0.328483 29.9288 1.19143 30.5004 1.76658 30.6716C2.88844 31.043 4.58544 30.7573 5.07436 30.3002C4.87301 30.5004 4.6141 31.4142 4.03896 32.157C3.83761 32.357 4.87301 32.357 5.64974 33.5566C5.64974 43.3818 5.73597 51.6931 5.85109 61.3471C3.49248 63.6891 1.99682 67.4307 3.69383 70.6868C4.44166 72.1717 5.56352 72.6577 5.85109 72.5436C6.88673 72.4582 3.9814 70.6868 5.93731 67.4883C7.54809 64.8603 9.9067 62.2611 12.438 59.8052C16.1198 56.1493 20.1754 52.7789 23.0807 49.8086C26.705 46.0378 28.2296 37.9836 26.9926 32.0996ZM11.9204 4.88046C11.9204 4.68029 12.1218 4.50906 12.2942 4.30889C12.3807 4.2235 12.4956 4.2235 12.4956 4.2235C15.6885 3.56655 18.9962 5.25187 20.2332 8.90759C22.5918 15.8196 18.6224 23.8741 12.4956 25.5592C12.4956 25.5592 12.4093 25.5592 12.2942 25.4736C12.0929 25.388 11.9204 25.1022 11.9204 24.9023V4.88046ZM12.4956 53.7211C12.4093 53.8068 12.4093 53.8068 12.2942 53.8068C12.0929 53.8068 11.9204 53.6064 11.9204 53.4354V29.9575L12.2942 29.5864C13.9914 28.1012 16.4363 27.5299 18.1333 29.0148C20.6646 31.2714 21.0673 35.1847 21.0673 38.6405C20.981 45.2096 17.0117 49.8652 12.4956 53.7211Z" fill="#6A7078"/>
<path d="M145.5 67.4596C145.299 59.7763 143.141 51.465 141.732 46.0381C140.898 42.6679 140.237 40.4399 140.61 40.1544C140.61 40.1544 140.898 40.9826 141.646 41.4683C142.221 41.8394 143.141 42.0394 144.465 41.2679C145.126 40.8967 145.414 38.8402 144.09 37.8123C143.889 37.6119 142.681 36.9839 141.444 37.3553C140.984 37.4409 140.495 37.7267 140.121 38.0979C136.928 41.1825 140.955 49.1227 140.869 59.2334C139.172 57.5483 133.706 53.15 133.706 53.15V23.2174C135.404 21.2468 138.222 19.9329 140.409 21.1609C140.409 21.1609 137.964 23.0175 140.323 25.1883C141.07 25.9309 143.257 25.5597 143.89 24.0743C144.091 23.7029 144.925 21.8179 142.566 19.9616C140.208 17.9907 136.727 18.4766 133.62 20.7898V20.7037C133.62 14.3345 133.535 9.8501 133.535 3.68086C133.535 3.68086 137.504 3.88103 139.575 3.88103C139.949 3.88103 140.323 4.08096 140.61 4.53775C141.186 5.28009 141.646 6.50863 142.221 8.0794C142.423 8.53642 142.969 8.36495 142.969 7.99378C143.055 5.56635 142.969 1.33905 143.055 0.710556C143.141 0.0538338 142.221 0.339386 141.646 0.254002H128.932C128.098 0.254002 127.235 0.254003 126.286 0.168384C125.826 0.168384 125.337 0.453936 125.826 0.739488C126.027 0.825107 126.401 1.02504 126.66 1.19651C127.034 1.48206 127.494 1.85347 127.695 2.51043V35.9847C127.781 50.2084 127.983 49.2659 127.781 50.1228C127.206 51.1512 123.927 50.323 124.301 51.6077C128.155 55.0638 133.621 58.8912 137.964 63.0324L141.445 66.6884C141.818 67.0598 142.106 67.5166 142.394 67.9167C144.666 71.0013 141.646 72.6864 142.681 72.7724C142.969 72.7724 144.177 72.3157 144.839 70.9157C145.126 70.3443 145.299 69.6874 145.414 69.0591C145.5 68.4878 145.5 68.0305 145.5 67.4596V67.4596ZM84.1753 0.396073H80.0337C79.2856 0.396073 79.458 0.767479 79.8318 0.853097C80.2921 1.13865 80.4934 1.2245 80.2921 1.59544C78.0195 7.47936 75.5744 12.5349 74.8273 14.5057C73.2158 10.1928 71.2601 5.53719 69.7358 1.96684C69.5345 1.51006 69.822 1.13865 70.1961 1.02433C70.8577 0.824401 71.1452 0.452995 70.2823 0.452995H62.9475C62.4873 0.452995 62.4873 0.824401 62.9475 1.02433C63.6092 1.2245 63.6954 1.39574 64.2708 2.25287C65.6802 4.30912 70.1098 14.506 70.9725 17.2192V30.9572C70.9725 31.8999 69.7358 32.2709 69.1893 32.6423C68.7291 32.9278 69.1893 33.2992 69.6496 33.2139C72.3822 32.6423 74.7408 32.6423 77.6457 33.2139C78.0199 33.2992 78.3073 32.9283 77.7321 32.6423C77.2719 32.2709 76.3225 31.8141 76.3225 31.0428V17.1907C76.3225 17.1907 80.0907 8.02224 82.8231 2.22441C83.0245 1.853 83.3988 1.11042 83.8585 0.995873C84.8369 0.767243 84.9233 0.396073 84.1753 0.396073V0.396073ZM39.4475 0.196375C36.6286 0.281758 34.0686 0.281758 30.8757 0.196375C30.4155 0.110756 30.1279 0.481927 30.7895 0.767714C31.2498 1.13912 32.2852 1.59591 32.2852 2.36718V41.7541C32.2852 42.7822 30.962 43.8959 30.4155 44.4675C29.9552 45.0386 30.4155 45.1242 30.8757 44.8387C31.8249 44.1817 38.4983 40.7259 39.3612 40.3545C39.7353 40.2689 40.1091 39.6976 39.4475 39.612C38.6134 39.3264 37.9518 39.412 37.9518 38.6694V26.7875V2.19571C38.038 1.2532 39.275 0.882029 39.8215 0.596242C40.368 0.396073 39.9077 0.196375 39.4475 0.196375V0.196375ZM101.146 0.853097C102.095 -0.260885 101.146 -0.0894126 100.484 0.281523C100.398 0.367141 98.989 0.738547 98.3274 0.481691C96.4572 -0.260885 92.4883 0.196139 90.4168 1.79537C84.5782 6.47969 83.4561 14.2484 84.1177 21.3319C84.5779 26.9301 86.4763 33.8708 91.9416 35.9271C94.76 36.9554 98.3553 36.8698 100.714 34.6132C102.584 32.8427 104.108 27.8728 102.584 25.0735C102.21 24.3309 101.635 24.8736 101.635 25.6448C101.721 27.7013 100.599 30.2151 99.1901 31.7285C98.356 32.671 96.3712 33.5853 94.6742 32.7568C90.82 30.7862 90.5326 25.5592 90.4459 21.3322C90.2441 15.1627 90.5319 4.50929 95.8247 3.36661C101.664 2.13855 102.785 10.7642 99.8804 8.70766C99.4201 8.42211 98.1834 8.13656 96.9461 8.99321C95.8247 9.82141 95.5369 11.6208 96.1985 12.9347C97.0324 14.7057 100.053 15.5626 101.837 13.8775C102.958 12.8491 103.246 12.4779 103.619 10.7928C104.454 7.50829 102.584 4.70899 101.347 2.93805C100.484 1.59591 101.232 0.681625 101.146 0.853097V0.853097ZM58.8344 0.853097C59.7835 -0.260885 58.8344 -0.0894126 58.1728 0.281523C58.0865 0.367141 56.8498 0.853097 56.1017 0.56731C54.232 -0.175266 50.3489 0.195904 48.3641 1.79537C42.525 6.47969 41.202 14.2484 41.7772 21.3319C42.2374 26.9301 44.0495 34.2422 49.601 35.9271C52.4199 36.7553 56.0155 35.9271 58.259 33.4996C60.5314 31.0717 61.5668 26.6734 60.0425 24.3312C59.8411 24.1312 59.4671 24.4168 59.5822 24.7023C59.7835 26.7588 59.1219 29.2723 57.5974 30.7003C56.936 31.2717 54.2896 32.6712 52.5926 31.9286C48.6232 30.1582 48.3643 25.388 48.2494 21.275C48.0481 15.1055 48.3356 4.45213 53.7145 3.30969C60.0138 1.99578 60.8767 10.8789 57.7703 8.65074C57.3101 8.36518 56.0731 8.07963 54.8363 8.93629C53.7145 9.76448 53.4269 11.5641 54.0885 12.878C54.9225 14.6485 57.9428 15.5056 59.7262 13.8205C60.8481 12.7924 61.1357 12.421 61.5097 10.7359C62.2575 7.56545 60.3878 4.73792 59.1511 2.96722C58.259 1.59591 59.0357 0.681625 58.8344 0.853097V0.853097ZM120.533 30.2435C121.109 30.6145 122.029 30.8147 123.352 30.0434C124.013 29.672 124.301 27.6155 122.978 26.5876C122.776 26.3874 121.568 25.7594 120.332 26.1306C119.871 26.2162 119.382 26.502 119.008 26.9588C116.19 29.6722 118.922 36.0414 119.67 44.353C117.8 42.5823 115.902 41.5539 113.63 40.1544L113.716 2.56688C113.716 1.62413 114.55 1.53852 115.211 0.967177C116.16 0.395838 115.413 0.224836 115.125 0.224836C111.817 0.310219 109.372 0.310219 106.553 0.224836C106.093 0.224836 105.604 0.596006 106.093 0.881558C106.754 1.33835 107.876 1.4529 107.963 2.48103C107.963 3.70909 108.164 37.2692 107.877 38.4977C107.589 39.4402 106.007 38.9543 105.432 39.1547C104.972 39.3546 105.058 39.8117 105.346 39.9829C105.432 40.1828 106.007 40.3541 106.093 40.3541C111.846 42.7817 114.665 44.01 119.469 47.9231C120.13 48.4944 122.201 50.2651 122.575 50.5507C122.777 50.6365 123.985 49.1516 123.151 44.667L122.949 43.7245C122.287 40.3541 121.454 37.2694 120.792 34.7559C119.958 31.3855 119.296 29.1578 119.67 28.872C119.584 28.8153 119.871 29.672 120.533 30.2435V30.2435ZM26.9926 32.0996C26.2447 28.4437 24.634 26.1016 21.0673 25.559C20.8659 25.559 20.607 25.1876 20.7797 24.9874C22.937 22.9309 25.2956 20.3033 26.3312 17.4186C28.9774 9.84963 24.7204 0.481456 18.1335 0.595771H3.26247C3.3487 0.595771 3.26247 1.16711 3.26247 1.25273C4.38433 1.53828 5.33351 2.8522 5.33351 3.88032V23.9875C5.53462 26.8731 2.39952 29.015 0.529831 29.8434C0.328483 29.9288 1.19143 30.5004 1.76658 30.6716C2.88844 31.043 4.58544 30.7573 5.07436 30.3002C4.87301 30.5004 4.6141 31.4142 4.03896 32.157C3.83761 32.357 4.87301 32.357 5.64974 33.5566C5.64974 43.3818 5.73597 51.6931 5.85109 61.3471C3.49248 63.6891 1.99682 67.4307 3.69383 70.6868C4.44166 72.1717 5.56352 72.6577 5.85109 72.5436C6.88673 72.4582 3.9814 70.6868 5.93731 67.4883C7.54809 64.8603 9.9067 62.2611 12.438 59.8052C16.1198 56.1493 20.1754 52.7789 23.0807 49.8086C26.705 46.0378 28.2296 37.9836 26.9926 32.0996ZM11.9204 4.88046C11.9204 4.68029 12.1218 4.50906 12.2942 4.30889C12.3807 4.2235 12.4956 4.2235 12.4956 4.2235C15.6885 3.56655 18.9962 5.25187 20.2332 8.90759C22.5918 15.8196 18.6224 23.8741 12.4956 25.5592C12.4956 25.5592 12.4093 25.5592 12.2942 25.4736C12.0929 25.388 11.9204 25.1022 11.9204 24.9023V4.88046ZM12.4956 53.7211C12.4093 53.8068 12.4093 53.8068 12.2942 53.8068C12.0929 53.8068 11.9204 53.6064 11.9204 53.4354V29.9575L12.2942 29.5864C13.9914 28.1012 16.4363 27.5299 18.1333 29.0148C20.6646 31.2714 21.0673 35.1847 21.0673 38.6405C20.981 45.2096 17.0117 49.8653 12.4956 53.7211V53.7211Z" fill="#6A7078"/>
<path d="M133.908 71.4866C133.908 70.2581 134.857 69.3445 135.979 69.3445C137.1 69.3445 138.049 70.287 138.049 71.4866C138.049 72.6863 137.1 73.6285 135.979 73.6285C134.857 73.6288 133.908 72.686 133.908 71.4866ZM136.094 73.9999C137.503 73.9999 138.74 72.8862 138.74 71.4864C138.74 70.0013 137.503 68.9727 136.094 68.9727C134.684 68.9727 133.447 70.0864 133.447 71.4864C133.448 72.9718 134.655 73.9999 136.094 73.9999ZM135.518 71.6579H136.094L136.842 72.9718H137.301L136.467 71.6579C136.928 71.5723 137.215 71.3721 137.215 70.8297C137.215 70.2866 136.841 70.0015 136.18 70.0015H135.058V73.0003H135.518V71.6579H135.518ZM135.518 71.2865V70.344H136.094C136.381 70.344 136.756 70.4296 136.756 70.801C136.756 71.2575 136.381 71.2575 136.007 71.2575H135.519V71.2862H135.518V71.2865Z" fill="#6A7078"/>
</svg>
