<?xml version="1.0" encoding="utf-8"?>
<!-- Generator: Adobe Illustrator 25.4.8, SVG Export Plug-In . SVG Version: 6.00 Build 0)  -->
<svg version="1.1" id="Layer_1" xmlns="http://www.w3.org/2000/svg" xmlns:xlink="http://www.w3.org/1999/xlink" x="0px" y="0px"
	 viewBox="0 0 270 144" style="enable-background:new 0 0 270 144;" xml:space="preserve">
<style type="text/css">
	.st0{fill:#FFFFFF;}
</style>
<g>
	<path class="st0" d="M243.5,123.57c-3.2,0-5.91,2.46-5.91,5.8c0,3.37,2.71,5.84,5.91,5.84c3.17,0,5.88-2.46,5.88-5.84
		C249.38,126.03,246.67,123.57,243.5,123.57z M243.5,134.23c-2.66,0-4.74-2.06-4.74-4.86c0-2.75,2.08-4.83,4.74-4.83
		c2.63,0,4.71,2.08,4.71,4.83C248.21,132.17,246.13,134.23,243.5,134.23z"/>
	<path class="st0" d="M246.18,127.94c0-1.32-0.79-1.91-2.37-1.91h-2.55v6.71h1.02v-2.91h1.17l1.76,2.91h1.14l-1.91-2.96
		C245.42,129.66,246.18,129.14,246.18,127.94z M242.27,128.97v-2.08h1.38c0.71,0,1.46,0.16,1.46,0.99c0,1.03-0.76,1.09-1.63,1.09
		H242.27z"/>
	<path class="st0" d="M259.91,125.86c-0.35-13.31-4.06-27.63-6.52-36.98c-1.52-5.77-2.55-9.65-2.02-10.21c0-0.01,0.49,1.46,1.72,2.3
		c1.03,0.71,2.59,1,4.83-0.4c1.17-0.72,1.61-4.14-0.6-5.96c-0.4-0.33-2.35-1.45-4.53-0.86c-0.77,0.21-1.57,0.62-2.34,1.37
		c-5.55,5.4,1.42,19.03,1.37,36.58c-2.98-2.99-12.31-10.56-12.31-10.56c0.05-19.95,0.06-28.3,0.05-48.06l-0.01-3.68
		c2.92-3.35,7.77-5.72,11.52-3.55c0.01,0-4.23,3.28-0.12,6.96c1.37,1.22,5.04,0.7,6.19-1.95c0.28-0.65,1.71-3.87-2.26-7.19
		c-3.98-3.32-10.02-2.6-15.35,1.43v-0.16c-0.02-11.07-0.1-18.75-0.08-29.44c0-0.04,6.72,0.29,10.28,0.3c0.69,0,1.24,0.39,1.75,1.06
		c0.93,1.22,1.71,3.4,2.82,6.12c0.31,0.76,1.35,0.55,1.35-0.11c0.09-4.18-0.02-11.46,0.09-12.59c0.11-1.13-1.49-0.68-2.38-0.79
		c-0.43-0.05-20.52-0.01-21.8-0.01c-1.47-0.02-2.94-0.06-4.47-0.12c-0.76-0.04-1.64,0.42-0.79,0.98c0.36,0.24,0.94,0.49,1.49,0.8
		c0.64,0.55,1.5,1.21,1.71,2.18v1.47c0,7.5,0.02,40.21,0.03,56.44l-0.01-0.01c0.22,24.66,0.41,23.03,0.09,24.5
		c-1,1.72-6.63,0.38-5.97,2.6c6.62,5.94,15.99,12.63,23.5,19.77l5.98,6.34c0.58,0.71,1.13,1.42,1.64,2.13
		c3.8,5.29-1.23,8.3,0.55,8.46c0.45,0.04,2.52-0.81,3.69-3.28c0.5-1.05,0.8-2.11,0.93-3.19
		C260.05,127.66,260.02,126.75,259.91,125.86z"/>
	<path class="st0" d="M143.9,65.54c-0.79-0.69-2.43-1.44-2.45-2.79l0.02-23.89c0,0,6.4-15.82,11.17-25.89
		c0.3-0.63,0.91-1.89,1.82-2.1c1.37-0.31,1.42-1.01,0.25-0.94c-3.93,0-3.25-0.07-7.19-0.07c-1.26-0.03-1.01,0.59-0.3,0.8
		c0.86,0.46,1.15,0.57,0.86,1.31c-3.89,10.16-8.06,18.98-9.32,22.28c-2.75-7.38-6.09-15.46-8.69-21.74
		c-0.34-0.81,0.08-1.39,0.74-1.55c1.06-0.24,1.55-1.03,0.21-1.02h-12.65c-0.87,0.01-0.89,0.69,0.01,1c1.05,0.39,1.29,0.69,2.26,2.1
		c2.49,3.61,10.03,21.21,11.49,25.83l0.07,23.86c-0.07,1.67-2.15,2.3-3,2.89c-0.8,0.55,0.03,1.1,0.73,0.96
		c4.71-0.91,8.66-0.91,13.75,0C144.36,66.77,144.88,66.13,143.9,65.54z"/>
	<path class="st0" d="M63.14,86.86c1.61-1.17,13.03-7.17,14.6-7.72c0.72-0.18,1.27-1.14,0.23-1.23c-1.43-0.51-2.57-0.36-2.59-1.59
		L75.4,55.8l-0.02,0.01c0-17.95,0.03-41.48,0.03-42.55c0.14-1.61,2.3-2.22,3.2-2.8c0.85-0.55-0.02-0.99-0.78-0.97
		c-4.91,0.2-9.14,0.17-14.74,0c-0.73-0.19-1.28,0.44-0.24,1.04c0.84,0.69,2.59,1.45,2.62,2.8l0.08,68.18
		c-0.07,1.8-2.28,3.64-3.19,4.75C61.52,87.28,62.4,87.39,63.14,86.86z"/>
	<path class="st0" d="M183.73,10.67c1.54-2.01-0.07-1.56-1.15-0.97c-0.12,0.21-2.53,0.87-3.76,0.38c-3.17-1.25-10.1-0.52-13.52,2.28
		c-9.96,8.15-11.91,21.46-10.91,33.85c0.79,9.65,4.1,21.65,13.44,25.17c4.81,1.81,10.96,1.65,15.07-2.24
		c3.17-3.01,5.85-11.59,3.28-16.51c-0.66-1.27-1.65-0.34-1.63,0.96c0.08,3.56-1.83,7.86-4.15,10.45c-1.45,1.61-4.91,3.23-7.74,1.75
		c-6.62-3.45-7.1-12.52-7.31-19.69c-0.31-10.72,0.16-29.2,9.28-31.06c10.1-2.06,12.01,12.73,6.96,9.18
		c-0.81-0.56-2.9-0.95-4.94,0.45c-2.02,1.39-2.46,4.57-1.35,6.8c1.51,3.03,6.6,4.56,9.73,1.59c1.87-1.78,2.4-2.46,3.13-5.27
		c1.48-5.68-1.8-10.58-3.88-13.55C182.67,12.01,183.96,10.37,183.73,10.67z"/>
	<path class="st0" d="M95.3,71.47c4.9,1.51,10.95,0,14.82-4.13c3.86-4.13,5.61-11.81,3.02-15.81c-0.25-0.39-0.91,0.17-0.88,0.58
		c0.29,3.55-0.85,7.99-3.42,10.33c-1.13,1.04-5.61,3.46-8.53,2.15c-6.81-3.03-7.29-11.31-7.49-18.48
		c-0.31-10.72,0.22-29.19,9.33-31.05c10.87-2.22,12.37,13.03,6.91,9.18c-0.81-0.56-2.91-0.95-4.95,0.45
		c-2.01,1.39-2.46,4.57-1.35,6.8c1.51,3.03,6.61,4.56,9.73,1.59c1.88-1.78,2.41-2.46,3.13-5.27c1.47-5.68-1.79-10.58-3.89-13.55
		c-1.59-2.25-0.3-3.89-0.54-3.59c1.54-2.01-0.06-1.56-1.15-0.97c-0.12,0.21-2.34,1.01-3.57,0.52c-3.18-1.25-9.88-0.68-13.3,2.11
		c-9.96,8.16-12.32,21.49-11.32,33.89C82.65,55.87,85.76,68.55,95.3,71.47z"/>
	<path class="st0" d="M221.4,55.04c-0.4-0.33-2.36-1.45-4.53-0.87c-0.77,0.21-1.57,0.62-2.34,1.37c-4.84,4.71-0.15,15.69,1.09,30.08
		c-3.3-3.13-6.41-4.83-10.32-7.26l0.12-65.06c0.02-1.62,1.46-1.79,2.53-2.69c1.57-0.92,0.35-1.27-0.15-1.22
		c-5.59,0.17-9.82,0.21-14.73,0c-0.76-0.02-1.63,0.58-0.77,1.15c1.17,0.77,3.13,1.01,3.19,2.82c0,2.1,0.25,60.25-0.13,62.26
		c-0.41,1.68-3.24,0.73-4.28,1.11c-0.83,0.26-0.72,1.17-0.11,1.46c0.16,0.25,1.11,0.61,1.28,0.69c9.83,4.16,14.69,6.33,22.92,13.1
		c0.02,0.02,0.04,0.03,0.05,0.04c1.16,0.96,4.71,4.06,5.31,4.55c0.3,0.24,2.43-2.42,1-10.19l-0.31-1.59
		c-1.22-5.82-2.61-11.18-3.74-15.48c-1.52-5.77-2.55-9.64-2.02-10.2c0-0.01,0.49,1.45,1.72,2.3c1.03,0.72,2.59,1,4.83-0.39
		C223.17,60.28,223.61,56.86,221.4,55.04z"/>
	<path class="st0" d="M56.5,64.65c-1.3-6.24-3.97-10.29-10.13-11.27c-0.38-0.06-0.76-0.68-0.44-0.99c3.75-3.55,7.82-8.05,9.57-13.15
		c4.5-13.12-2.67-29.21-14-29.2c-3.66,0-6.98-0.02-10.26-0.03c-4.54-0.03-8.97-0.06-14.04-0.04c-0.34,0-1.49-0.04-1.25-0.03
		c0.15,0,0,1.03,0.07,1.06c1.93,0.55,3.62,2.77,3.61,4.49c-0.01,12.73-0.01,22.82,0,34.75c0,5.32-5.4,9.12-8.59,10.54
		c-0.33,0.15,1.12,1.17,2.06,1.52c1.92,0.72,4.78,0.16,5.68-0.67c-0.36,0.33-0.87,2.01-1.8,3.26c-0.3,0.39,1.47,0.27,2.67,2.48
		c-0.03,16.94,0.23,31.42,0.26,48.03c-4.05,4.11-6.58,10.56-3.79,16.26c1.24,2.52,3.27,3.35,3.71,3.29
		c1.71-0.21-3.28-3.19,0.17-8.76c2.82-4.55,6.86-9.02,11.24-13.33c6.32-6.23,13.33-12.12,18.34-17.38
		C56,88.74,58.61,74.83,56.5,64.65z M30.54,17.63c0-0.25,0.38-0.67,0.71-0.93c0.15-0.12,0.3-0.22,0.37-0.23
		c5.45-1.12,11.1,1.75,13.19,8.03c4.01,12.04-2.67,25.86-13.25,28.81c-0.07,0.02-0.19-0.03-0.31-0.12c-0.32-0.19-0.72-0.6-0.72-0.9
		C30.54,40.7,30.54,29.36,30.54,17.63z M46.25,76.08c-0.19,11.33-6.97,19.38-14.69,26.04c-0.09,0.08-0.2,0.11-0.31,0.11
		c-0.35,0.01-0.72-0.32-0.72-0.63c0.01-13.5,0.01-27.05,0.01-40.6c0.22-0.24,0.47-0.44,0.71-0.65c2.91-2.57,7.11-3.47,10.06-0.89
		C45.64,63.27,46.35,70.21,46.25,76.08z"/>
	<path class="st0" d="M62.2,113.17c-0.08-0.01-0.16-0.06-0.24-0.15c-1.29-1.5-2.58-3.01-3.88-4.51c0.67-0.58,1.35-1.15,2.04-1.71
		c0.1-0.08,0.19-0.12,0.28-0.13c0.08,0,0.19,0.04,0.31,0.12c0.05-0.04,0.1-0.08,0.16-0.13c-0.43-0.53-0.85-1.05-1.28-1.58
		c-0.05,0.04-0.11,0.09-0.16,0.13c0.05,0.13,0.07,0.24,0.05,0.33c-0.02,0.08-0.08,0.17-0.18,0.25c-1.87,1.54-3.71,3.14-5.5,4.81
		c-0.09,0.09-0.18,0.14-0.27,0.14c-0.08,0.01-0.19-0.03-0.32-0.09c-0.05,0.05-0.1,0.09-0.15,0.14c0.46,0.49,0.93,0.99,1.39,1.48
		c0.05-0.05,0.1-0.09,0.15-0.14c-0.06-0.13-0.09-0.24-0.08-0.32c0.01-0.09,0.07-0.17,0.16-0.26c0.66-0.61,1.32-1.21,1.99-1.81
		c1.32,1.48,2.63,2.97,3.95,4.45c0.08,0.09,0.12,0.18,0.12,0.26c0,0.08-0.04,0.19-0.12,0.31c0.04,0.05,0.08,0.09,0.12,0.14
		c0.63-0.57,1.27-1.12,1.91-1.67c-0.04-0.05-0.08-0.09-0.12-0.14C62.39,113.16,62.28,113.18,62.2,113.17z"/>
	<path class="st0" d="M73.26,104.78c-0.17-0.02-0.47-0.11-0.91-0.28c-0.83-0.31-1.67-0.61-2.52-0.91c1.1-1.02,1.31-2.05,0.6-3.12
		c-0.21-0.31-0.46-0.57-0.77-0.76c-0.32-0.2-0.67-0.29-1.06-0.27c-0.33,0.01-0.67,0.1-1.03,0.26c-0.35,0.16-0.8,0.42-1.33,0.8
		c-1.46,1.03-2.9,2.09-4.31,3.19c0.04,0.05,0.08,0.1,0.11,0.15c0.14-0.06,0.26-0.09,0.34-0.07c0.08,0.01,0.16,0.07,0.23,0.16
		c1.35,1.76,2.7,3.51,4.05,5.27c0.07,0.09,0.1,0.18,0.1,0.26c-0.01,0.08-0.05,0.18-0.14,0.3c0.04,0.05,0.08,0.1,0.11,0.15
		c0.66-0.51,1.33-1.02,2-1.51c-0.04-0.05-0.07-0.1-0.11-0.15c-0.13,0.05-0.24,0.07-0.32,0.06c-0.08-0.02-0.16-0.07-0.23-0.16
		c-0.52-0.7-1.04-1.39-1.55-2.09c0.59-0.44,1.18-0.87,1.78-1.3c0.9,0.3,1.79,0.62,2.68,0.94c0.3,0.11,0.47,0.2,0.51,0.25
		c0.06,0.09,0.02,0.2-0.13,0.34c0.03,0.05,0.07,0.1,0.1,0.15c0.79-0.55,1.58-1.08,2.38-1.61c-0.03-0.05-0.07-0.1-0.1-0.15
		C73.58,104.76,73.42,104.8,73.26,104.78z M69.02,102.44c-0.08,0.14-0.18,0.27-0.3,0.39c-0.13,0.12-0.36,0.29-0.7,0.53
		c-0.76,0.54-1.52,1.09-2.27,1.65c-0.41-0.55-0.82-1.1-1.23-1.65c0.76-0.57,1.53-1.13,2.31-1.68c0.35-0.25,0.6-0.41,0.75-0.49
		c0.15-0.08,0.31-0.13,0.47-0.15c0.35-0.05,0.64,0.1,0.87,0.44C69.15,101.81,69.18,102.13,69.02,102.44z"/>
	<path class="st0" d="M79.49,93.09c-0.06-0.1-0.07-0.2-0.05-0.28c0.02-0.08,0.09-0.17,0.2-0.28c-0.03-0.05-0.06-0.11-0.09-0.16
		c-0.73,0.38-1.46,0.77-2.18,1.17c0.03,0.05,0.06,0.11,0.09,0.16c0.15-0.04,0.26-0.04,0.34-0.02c0.08,0.03,0.15,0.09,0.2,0.2
		c0.63,1.15,1.25,2.29,1.88,3.44c0.22,0.4,0.35,0.7,0.41,0.92c0.06,0.21,0.06,0.42,0.01,0.61c-0.14,0.52-0.6,1-1.39,1.45
		c-0.78,0.45-1.43,0.61-1.95,0.46c-0.2-0.05-0.37-0.16-0.53-0.32c-0.16-0.16-0.35-0.43-0.58-0.82c-0.67-1.12-1.34-2.24-2.01-3.36
		c-0.06-0.1-0.08-0.19-0.07-0.28c0.02-0.08,0.08-0.18,0.19-0.28c-0.03-0.05-0.06-0.11-0.09-0.16c-0.76,0.45-1.51,0.91-2.25,1.38
		c0.03,0.05,0.07,0.1,0.1,0.16c0.15-0.05,0.26-0.06,0.34-0.04c0.08,0.02,0.15,0.08,0.22,0.18c0.77,1.25,1.55,2.49,2.32,3.74
		c0.29,0.47,0.61,0.83,0.94,1.09c0.34,0.26,0.74,0.39,1.2,0.39c0.78,0,1.71-0.33,2.79-0.95c1.5-0.86,2.33-1.72,2.47-2.64
		c0.08-0.51-0.07-1.13-0.46-1.87C80.86,95.68,80.18,94.38,79.49,93.09z"/>
	<path class="st0" d="M90.76,92.04c-0.26-0.22-0.55-0.37-0.87-0.44c-0.31-0.06-0.65-0.07-1-0.03c-0.35,0.04-0.8,0.15-1.33,0.32
		c-0.3,0.1-0.59,0.2-0.89,0.3c-0.6,0.2-0.99,0.33-1.19,0.36c-0.38,0.06-0.64-0.04-0.76-0.31c-0.08-0.16-0.08-0.34-0.01-0.55
		c0.07-0.2,0.19-0.39,0.38-0.56c0.25-0.23,0.58-0.43,0.97-0.61c0.88-0.4,1.75-0.52,2.59-0.36c0.27,0.05,0.43,0.13,0.48,0.25
		c0.01,0.02,0.02,0.05,0.03,0.09c0.06,0.01,0.13,0.01,0.19,0.02c0.06-0.69,0.12-1.39,0.19-2.08c-0.06-0.01-0.13-0.01-0.19-0.01
		c-0.07,0.13-0.15,0.2-0.22,0.24c-0.05,0.02-0.2,0.04-0.45,0.04c-0.74,0.01-1.34,0.07-1.8,0.16c-0.46,0.09-0.94,0.25-1.42,0.47
		c-1.16,0.53-1.9,1.2-2.22,1.99c-0.25,0.6-0.22,1.2,0.07,1.79c0.18,0.36,0.42,0.64,0.72,0.84c0.34,0.22,0.7,0.33,1.1,0.33
		c0.28,0,0.55-0.03,0.8-0.08c0.25-0.06,0.66-0.19,1.24-0.38c0.29-0.1,0.57-0.19,0.86-0.29c0.58-0.19,0.98-0.28,1.19-0.29
		c0.3-0.01,0.51,0.1,0.61,0.34c0.07,0.16,0.08,0.33,0.03,0.53c-0.05,0.19-0.14,0.37-0.29,0.54c-0.26,0.3-0.63,0.56-1.09,0.77
		c-0.43,0.19-0.91,0.33-1.46,0.4c-0.54,0.08-0.98,0.07-1.3-0.02c-0.21-0.06-0.36-0.17-0.43-0.32c-0.01-0.01-0.02-0.04-0.03-0.07
		c-0.06,0-0.13,0-0.19,0c0.02,0.7,0.05,1.41,0.07,2.11c0.06,0,0.13,0,0.19,0c0.06-0.12,0.11-0.2,0.16-0.22
		c0.04-0.02,0.18-0.03,0.41-0.03c1.13,0.01,2.15-0.2,3.09-0.62c0.52-0.24,0.98-0.52,1.39-0.85c0.54-0.44,0.89-0.9,1.03-1.38
		c0.16-0.53,0.14-1.06-0.07-1.56C91.22,92.54,91.02,92.26,90.76,92.04z"/>
	<path class="st0" d="M99.05,83.9c0,0.15-0.02,0.25-0.06,0.32c-0.05,0.07-0.13,0.12-0.25,0.16c-2.2,0.7-4.39,1.46-6.56,2.29
		c-0.11,0.04-0.21,0.05-0.29,0.03c-0.08-0.03-0.16-0.1-0.25-0.21c-0.06,0.02-0.12,0.05-0.18,0.07c0.25,0.63,0.49,1.26,0.74,1.89
		c0.06-0.02,0.12-0.05,0.18-0.07c-0.01-0.15,0-0.25,0.04-0.33c0.04-0.07,0.12-0.13,0.23-0.17c0.79-0.3,1.59-0.6,2.39-0.88
		c0.67,1.87,1.34,3.74,2.01,5.6c0.04,0.11,0.05,0.21,0.02,0.28c-0.03,0.08-0.1,0.15-0.22,0.24c0.02,0.06,0.04,0.12,0.06,0.17
		c0.76-0.27,1.52-0.54,2.28-0.79c-0.02-0.06-0.04-0.12-0.06-0.17c-0.14,0.01-0.25-0.01-0.32-0.05c-0.07-0.04-0.12-0.12-0.16-0.23
		c-0.64-1.88-1.28-3.76-1.92-5.63c0.8-0.27,1.6-0.54,2.41-0.79c0.12-0.04,0.22-0.04,0.29-0.01c0.08,0.03,0.15,0.11,0.23,0.23
		c0.06-0.02,0.12-0.04,0.18-0.06c-0.2-0.65-0.4-1.29-0.6-1.94C99.17,83.87,99.11,83.89,99.05,83.9z"/>
	<path class="st0" d="M110.81,87.58c-0.01,0.14-0.04,0.25-0.08,0.31c-0.05,0.07-0.13,0.11-0.24,0.13c-1.63,0.36-3.25,0.75-4.86,1.18
		c-0.19-0.69-0.37-1.39-0.56-2.08c1.04-0.28,2.08-0.54,3.12-0.79c0.11-0.03,0.21-0.02,0.28,0.02c0.07,0.04,0.14,0.12,0.21,0.24
		c0.06-0.01,0.12-0.03,0.18-0.04c-0.15-0.64-0.3-1.29-0.45-1.93c-0.06,0.01-0.12,0.03-0.18,0.04c-0.01,0.14-0.03,0.25-0.08,0.31
		c-0.05,0.07-0.13,0.11-0.24,0.14c-1.05,0.25-2.11,0.51-3.15,0.79c-0.16-0.6-0.32-1.2-0.48-1.8c1.64-0.44,3.29-0.84,4.95-1.21
		c0.12-0.03,0.21-0.02,0.29,0.02c0.07,0.04,0.14,0.12,0.21,0.25c0.06-0.01,0.12-0.03,0.19-0.04c-0.14-0.66-0.29-1.32-0.43-1.98
		c-0.06,0.01-0.13,0.03-0.19,0.04c-0.01,0.14-0.04,0.25-0.09,0.31c-0.05,0.07-0.14,0.11-0.25,0.14c-2.38,0.53-4.75,1.13-7.11,1.8
		c0.02,0.06,0.03,0.12,0.05,0.18c0.15,0,0.26,0.02,0.33,0.06c0.07,0.04,0.12,0.12,0.15,0.24c0.6,2.13,1.21,4.26,1.81,6.39
		c0.03,0.11,0.03,0.21,0,0.28c-0.03,0.07-0.11,0.15-0.23,0.22c0.02,0.06,0.03,0.12,0.05,0.18c2.24-0.64,4.5-1.21,6.77-1.71
		c0.11-0.02,0.2-0.02,0.27,0.02c0.07,0.04,0.14,0.12,0.2,0.25c0.06-0.01,0.12-0.03,0.18-0.04c-0.14-0.66-0.28-1.32-0.43-1.98
		C110.93,87.55,110.87,87.57,110.81,87.58z"/>
	<path class="st0" d="M121.26,81.52c-0.44-0.69-1.07-1.14-1.87-1.36c-0.56-0.15-1.34-0.15-2.33-0.01c-1.51,0.22-3.01,0.48-4.51,0.76
		c0.01,0.06,0.02,0.12,0.03,0.18c0.15,0.01,0.26,0.04,0.32,0.09c0.07,0.05,0.11,0.13,0.13,0.25c0.4,2.18,0.81,4.35,1.22,6.53
		c0.02,0.12,0.01,0.21-0.03,0.28c-0.04,0.07-0.12,0.14-0.25,0.2c0.01,0.06,0.02,0.12,0.03,0.18c1.4-0.26,2.81-0.5,4.22-0.71
		c0.7-0.1,1.27-0.25,1.7-0.44c0.44-0.19,0.81-0.45,1.11-0.79c0.72-0.8,1.02-1.87,0.87-3.22C121.82,82.71,121.61,82.06,121.26,81.52z
		 M119.36,86.16c-0.31,0.23-0.8,0.4-1.47,0.5c-0.7,0.11-1.4,0.22-2.1,0.34c-0.29-1.73-0.59-3.46-0.88-5.19
		c0.73-0.12,1.46-0.24,2.2-0.35c0.53-0.08,0.97-0.09,1.31-0.03c0.34,0.06,0.63,0.2,0.89,0.41c0.47,0.39,0.75,1.01,0.85,1.84
		C120.3,84.84,120.03,85.66,119.36,86.16z"/>
	<path class="st0" d="M135.37,81.36c0.32-0.61,0.65-1.23,0.98-1.84c-0.06-0.03-0.11-0.06-0.17-0.09c-0.11,0.09-0.21,0.13-0.29,0.13
		c-0.05,0-0.19-0.05-0.42-0.14c-0.67-0.28-1.23-0.46-1.69-0.56c-0.45-0.1-0.94-0.14-1.47-0.13c-1.25,0.03-2.18,0.35-2.77,0.95
		c-0.45,0.45-0.66,1.01-0.63,1.68c0.02,0.4,0.13,0.75,0.33,1.06c0.22,0.34,0.51,0.58,0.86,0.74c0.25,0.11,0.5,0.19,0.75,0.24
		c0.25,0.05,0.67,0.09,1.27,0.14c0.3,0.02,0.59,0.05,0.89,0.08c0.6,0.06,0.99,0.13,1.19,0.2c0.28,0.11,0.42,0.3,0.42,0.56
		c0,0.17-0.06,0.34-0.18,0.5c-0.12,0.16-0.27,0.29-0.47,0.38c-0.35,0.17-0.78,0.27-1.28,0.27c-0.46,0.01-0.95-0.06-1.47-0.21
		c-0.52-0.15-0.91-0.32-1.16-0.53c-0.17-0.14-0.26-0.29-0.27-0.47c0-0.02,0-0.04,0-0.07c-0.06-0.02-0.11-0.05-0.17-0.07
		c-0.25,0.65-0.5,1.31-0.75,1.96c0.06,0.03,0.11,0.05,0.17,0.08c0.1-0.09,0.18-0.14,0.22-0.14c0.04,0,0.17,0.04,0.38,0.13
		c1.01,0.45,2.01,0.67,3.02,0.65c0.56-0.01,1.09-0.09,1.58-0.23c0.66-0.19,1.15-0.48,1.47-0.86c0.35-0.43,0.54-0.91,0.55-1.46
		c0.01-0.35-0.07-0.68-0.21-0.99c-0.15-0.31-0.35-0.56-0.62-0.75c-0.26-0.18-0.56-0.32-0.89-0.42c-0.34-0.1-0.78-0.18-1.32-0.23
		c-0.31-0.03-0.61-0.05-0.92-0.08c-0.62-0.05-1.02-0.09-1.21-0.14c-0.37-0.1-0.55-0.29-0.57-0.59c-0.01-0.18,0.06-0.35,0.2-0.51
		c0.14-0.16,0.32-0.28,0.55-0.36c0.32-0.11,0.69-0.17,1.11-0.18c0.95-0.02,1.78,0.22,2.48,0.69c0.23,0.15,0.34,0.29,0.34,0.42
		c0,0.02,0,0.05-0.01,0.09C135.26,81.3,135.32,81.33,135.37,81.36z"/>
	<path class="st0" d="M139.27,79.12c0.14,0.04,0.24,0.1,0.29,0.16c0.05,0.06,0.08,0.15,0.07,0.27c-0.09,2.21-0.19,4.43-0.28,6.64
		c0,0.12-0.03,0.21-0.09,0.27c-0.05,0.06-0.15,0.11-0.29,0.14c0,0.06,0,0.12-0.01,0.18c0.79,0.03,1.59,0.07,2.38,0.12
		c0-0.06,0.01-0.12,0.01-0.18c-0.13-0.04-0.22-0.1-0.27-0.16c-0.05-0.07-0.07-0.16-0.07-0.28c0.13-2.21,0.25-4.42,0.38-6.64
		c0.01-0.12,0.04-0.2,0.1-0.26c0.06-0.06,0.16-0.1,0.31-0.13c0-0.06,0.01-0.12,0.01-0.18c-0.85-0.05-1.7-0.09-2.55-0.13
		C139.28,79,139.27,79.06,139.27,79.12z"/>
	<path class="st0" d="M151.68,80.25c0.14,0.06,0.23,0.12,0.27,0.19c0.05,0.07,0.06,0.16,0.04,0.27c-0.23,1.54-0.45,3.07-0.68,4.61
		c-1.21-1.69-2.47-3.37-3.8-5.02c-0.1-0.12-0.14-0.23-0.13-0.32c0.01-0.13,0.11-0.21,0.28-0.24c0.01-0.06,0.01-0.12,0.02-0.18
		c-0.92-0.1-1.85-0.19-2.77-0.27c-0.01,0.06-0.01,0.12-0.02,0.18c0.14,0.05,0.23,0.11,0.29,0.18c0.05,0.07,0.07,0.16,0.06,0.27
		c-0.2,2.21-0.4,4.41-0.59,6.62c-0.01,0.12-0.04,0.21-0.1,0.26c-0.06,0.06-0.16,0.1-0.29,0.12c-0.01,0.06-0.01,0.12-0.02,0.18
		c0.75,0.06,1.49,0.14,2.24,0.22c0.01-0.06,0.01-0.12,0.02-0.18c-0.13-0.05-0.22-0.11-0.26-0.18c-0.05-0.07-0.06-0.16-0.05-0.28
		c0.16-1.58,0.33-3.16,0.49-4.75c1.33,1.66,2.61,3.34,3.82,5.04c0.16,0.22,0.23,0.36,0.22,0.44c-0.02,0.13-0.11,0.2-0.27,0.21
		c-0.01,0.06-0.02,0.12-0.03,0.18c0.8,0.11,1.59,0.24,2.38,0.37c0.01-0.06,0.02-0.12,0.03-0.18c-0.13-0.06-0.21-0.12-0.25-0.19
		c-0.04-0.07-0.05-0.16-0.03-0.28c0.35-2.19,0.71-4.37,1.06-6.56c0.02-0.11,0.06-0.2,0.13-0.25c0.06-0.05,0.17-0.08,0.32-0.1
		c0.01-0.06,0.02-0.12,0.03-0.18c-0.79-0.13-1.59-0.25-2.38-0.37C151.7,80.13,151.69,80.19,151.68,80.25z"/>
	<path class="st0" d="M164.05,85.19c0.04,0.05,0.09,0.09,0.13,0.14c0.5-0.43,1-0.86,1.51-1.29c-0.04-0.05-0.08-0.09-0.12-0.14
		c-0.13,0.07-0.24,0.09-0.3,0.07c-0.07-0.02-0.24-0.16-0.51-0.42c-0.57-0.55-1.08-0.94-1.5-1.18c-0.42-0.24-0.95-0.43-1.58-0.58
		c-1.73-0.4-3.14-0.15-4.19,0.72c-0.7,0.58-1.13,1.34-1.31,2.27c-0.13,0.69-0.1,1.34,0.1,1.97c0.17,0.55,0.44,1.03,0.82,1.46
		c0.65,0.73,1.55,1.22,2.73,1.5c0.59,0.14,1.12,0.2,1.58,0.17c0.46-0.02,1.05-0.14,1.78-0.34c0.35-0.1,0.56-0.14,0.63-0.12
		c0.07,0.02,0.14,0.09,0.21,0.21c0.06-0.02,0.11-0.04,0.17-0.06c-0.2-0.62-0.41-1.24-0.63-1.86c-0.06,0.02-0.12,0.04-0.18,0.07
		c-0.01,0.06-0.02,0.11-0.03,0.15c-0.03,0.11-0.1,0.2-0.22,0.27c-0.12,0.07-0.31,0.14-0.58,0.22c-0.75,0.2-1.48,0.22-2.22,0.05
		c-0.86-0.2-1.5-0.57-1.93-1.12c-0.5-0.64-0.67-1.38-0.5-2.21c0.17-0.83,0.62-1.44,1.37-1.82c0.63-0.32,1.41-0.38,2.31-0.17
		c0.77,0.18,1.45,0.54,2.03,1.09c0.21,0.2,0.35,0.35,0.42,0.47c0.07,0.12,0.09,0.23,0.06,0.34
		C164.09,85.09,164.07,85.14,164.05,85.19z"/>
	<path class="st0" d="M175.92,86.12c-0.08,0.03-0.18,0.02-0.29-0.02c-2.31-0.85-4.64-1.62-6.99-2.32c-0.02,0.06-0.04,0.12-0.05,0.18
		c0.13,0.08,0.21,0.15,0.25,0.23c0.04,0.07,0.04,0.17,0,0.28c-0.64,2.12-1.28,4.24-1.92,6.36c-0.03,0.11-0.09,0.19-0.15,0.24
		c-0.07,0.04-0.17,0.06-0.31,0.06c-0.02,0.06-0.04,0.12-0.05,0.18c2.24,0.67,4.46,1.4,6.66,2.21c0.11,0.04,0.18,0.09,0.22,0.17
		c0.04,0.07,0.05,0.18,0.04,0.32c0.06,0.02,0.11,0.04,0.17,0.06c0.24-0.63,0.47-1.27,0.71-1.9c-0.06-0.02-0.11-0.04-0.17-0.06
		c-0.08,0.12-0.16,0.19-0.24,0.22c-0.08,0.03-0.17,0.02-0.28-0.02c-1.58-0.58-3.16-1.12-4.76-1.63c0.22-0.68,0.43-1.37,0.65-2.05
		c1.03,0.33,2.05,0.67,3.07,1.02c0.11,0.04,0.19,0.09,0.23,0.17c0.04,0.07,0.06,0.18,0.05,0.32c0.06,0.02,0.12,0.04,0.18,0.06
		c0.22-0.62,0.44-1.25,0.66-1.87c-0.06-0.02-0.12-0.04-0.18-0.06c-0.08,0.12-0.16,0.19-0.24,0.22c-0.08,0.03-0.17,0.03-0.28-0.01
		c-1.03-0.36-2.06-0.7-3.1-1.03c0.19-0.59,0.38-1.18,0.57-1.78c1.62,0.52,3.24,1.07,4.84,1.66c0.11,0.04,0.19,0.1,0.23,0.17
		c0.04,0.07,0.06,0.18,0.05,0.32c0.06,0.02,0.12,0.04,0.18,0.07c0.24-0.63,0.47-1.27,0.71-1.9c-0.06-0.02-0.12-0.05-0.18-0.07
		C176.08,86.02,176,86.09,175.92,86.12z"/>
	<path class="st0" d="M185.63,90.5c0.12,0.1,0.19,0.19,0.21,0.27c0.03,0.08,0.01,0.17-0.04,0.28c-0.05,0.1-0.1,0.2-0.15,0.31
		c-0.18-0.04-0.35-0.07-0.53-0.11c-0.07-0.02-0.13-0.03-0.16-0.05c-0.08-0.04-0.12-0.08-0.14-0.14c-0.02-0.06-0.02-0.16,0-0.3
		c-0.06-0.03-0.12-0.05-0.18-0.08c-0.29,0.63-0.59,1.26-0.88,1.89c0.06,0.03,0.12,0.05,0.17,0.08c0.09-0.11,0.18-0.18,0.26-0.2
		c0.08-0.03,0.18-0.03,0.31,0c0.19,0.04,0.38,0.08,0.57,0.12c-0.72,1.49-1.43,2.99-2.15,4.48c-0.05,0.11-0.11,0.18-0.19,0.21
		c-0.07,0.03-0.18,0.04-0.32,0.01c-0.03,0.06-0.05,0.11-0.08,0.17c0.72,0.34,1.43,0.69,2.14,1.05c0.03-0.05,0.05-0.11,0.08-0.16
		c-0.11-0.1-0.17-0.18-0.19-0.26c-0.02-0.08,0-0.17,0.05-0.28c0.99-1.98,1.98-3.97,2.96-5.95c0.05-0.11,0.12-0.17,0.2-0.2
		c0.08-0.03,0.19-0.03,0.34,0.01c0.03-0.05,0.06-0.11,0.08-0.16c-0.76-0.38-1.53-0.76-2.3-1.12
		C185.69,90.39,185.66,90.45,185.63,90.5z"/>
	<path class="st0" d="M197.03,96.81c-0.41-0.57-1.02-1.1-1.85-1.59c-1.18-0.7-2.18-0.97-2.96-0.83c-0.58,0.1-1,0.39-1.25,0.85
		c-0.36,0.66-0.19,1.38,0.48,2.19c-1.21-0.34-2.04-0.08-2.48,0.74c-0.21,0.38-0.29,0.81-0.24,1.27c0.05,0.46,0.21,0.86,0.47,1.22
		c0.41,0.55,1.03,1.07,1.86,1.56c1.22,0.72,2.23,1.02,3.05,0.86c0.67-0.12,1.18-0.45,1.51-0.97c0.5-0.78,0.32-1.63-0.56-2.53
		c1.03,0.2,1.75,0,2.15-0.63c0.21-0.33,0.29-0.68,0.24-1.06C197.41,97.5,197.27,97.14,197.03,96.81z M194.1,101.14
		c-0.17,0.28-0.43,0.42-0.79,0.44c-0.46,0.01-0.99-0.16-1.58-0.51c-0.54-0.32-0.92-0.66-1.14-1.03c-0.21-0.36-0.23-0.7-0.05-1.02
		c0.17-0.3,0.43-0.46,0.78-0.48c0.47-0.02,1.01,0.14,1.59,0.49c0.57,0.34,0.96,0.7,1.17,1.07
		C194.29,100.47,194.3,100.82,194.1,101.14z M195.68,98.08c-0.15,0.24-0.41,0.35-0.78,0.32c-0.37-0.03-0.81-0.19-1.3-0.48
		c-0.49-0.29-0.84-0.59-1.04-0.9c-0.2-0.31-0.24-0.6-0.09-0.85c0.14-0.25,0.4-0.37,0.78-0.35c0.38,0.02,0.81,0.17,1.31,0.47
		c0.52,0.31,0.88,0.62,1.07,0.94C195.82,97.53,195.83,97.82,195.68,98.08z"/>
	<path class="st0" d="M206.07,105.16c0.24-0.31,0.35-0.66,0.34-1.04c-0.02-0.38-0.13-0.75-0.34-1.11c-0.36-0.61-0.93-1.2-1.72-1.77
		c-1.13-0.82-2.1-1.18-2.91-1.12c-0.59,0.04-1.04,0.29-1.33,0.73c-0.42,0.62-0.32,1.36,0.29,2.23c-1.19-0.46-2.04-0.28-2.56,0.49
		c-0.24,0.36-0.36,0.78-0.35,1.25c0.01,0.46,0.14,0.88,0.37,1.26c0.36,0.59,0.94,1.17,1.74,1.74c1.16,0.84,2.15,1.24,2.99,1.16
		c0.69-0.06,1.22-0.33,1.61-0.82c0.57-0.73,0.46-1.6-0.35-2.59C204.87,105.88,205.61,105.75,206.07,105.16z M202.75,107.04
		c-0.2,0.26-0.47,0.38-0.83,0.36c-0.47-0.03-0.98-0.25-1.55-0.66c-0.52-0.38-0.87-0.75-1.05-1.14c-0.18-0.38-0.17-0.73,0.04-1.03
		c0.2-0.28,0.47-0.42,0.83-0.4c0.48,0.03,1,0.24,1.56,0.64c0.55,0.4,0.91,0.8,1.08,1.19C203,106.4,202.97,106.74,202.75,107.04z
		 M203.78,104.37c-0.37-0.07-0.79-0.27-1.26-0.61c-0.47-0.34-0.79-0.67-0.97-1c-0.18-0.33-0.19-0.62-0.02-0.86
		c0.17-0.24,0.44-0.33,0.81-0.28c0.38,0.06,0.8,0.25,1.27,0.59c0.5,0.36,0.83,0.71,1,1.04c0.17,0.34,0.16,0.63-0.02,0.87
		C204.43,104.36,204.15,104.44,203.78,104.37z"/>
	<path class="st0" d="M215.35,110.32c-0.08-0.01-0.18-0.05-0.27-0.14c-1.7-1.57-3.44-3.07-5.21-4.52c-0.04,0.05-0.08,0.1-0.12,0.14
		c0.09,0.12,0.14,0.22,0.15,0.31c0,0.09-0.03,0.18-0.11,0.28c-0.35,0.43-0.7,0.86-1.06,1.28c-0.15,0.18-0.3,0.21-0.45,0.08
		c-0.02-0.01-0.04-0.03-0.06-0.06c-0.06,0.01-0.13,0.02-0.19,0.02c0.13,0.99,0.25,1.97,0.36,2.95c0.06,0,0.13,0,0.19,0
		c0.02-0.11,0.05-0.19,0.08-0.23c0.1-0.12,0.35-0.1,0.75,0.06c0.4,0.16,0.77,0.39,1.12,0.7c0.47,0.41,0.76,0.84,0.87,1.28
		c0.11,0.44,0.02,0.81-0.27,1.13c-0.31,0.34-0.7,0.48-1.16,0.42c-0.42-0.05-0.86-0.28-1.32-0.68c-0.61-0.54-1.04-1.17-1.29-1.93
		c-0.12-0.36-0.12-0.61,0-0.76c0.04-0.05,0.11-0.11,0.19-0.17c-0.02-0.06-0.04-0.12-0.05-0.18c-0.77,0.16-1.53,0.32-2.28,0.49
		c0.02,0.06,0.03,0.12,0.05,0.19c0.18,0.03,0.3,0.07,0.36,0.12c0.1,0.09,0.19,0.22,0.26,0.4c0.16,0.42,0.27,0.71,0.35,0.88
		c0.32,0.7,0.84,1.36,1.56,1.99c1.12,0.98,2.16,1.4,3.18,1.24c0.59-0.09,1.09-0.35,1.49-0.78c0.53-0.56,0.73-1.23,0.59-2.01
		c-0.15-0.83-0.67-1.66-1.56-2.44c-0.68-0.6-1.39-1-2.11-1.2c0.36-0.43,0.73-0.86,1.09-1.29c1.25,1.05,2.48,2.14,3.69,3.25
		c0.1,0.09,0.15,0.17,0.16,0.26c0.01,0.08-0.01,0.19-0.07,0.33c0.05,0.05,0.1,0.09,0.15,0.14c0.47-0.51,0.94-1.01,1.41-1.52
		c-0.05-0.05-0.1-0.09-0.15-0.14C215.54,110.29,215.43,110.32,215.35,110.32z"/>
</g>
</svg>
