<svg xmlns="http://www.w3.org/2000/svg" fill="none" width="62" height="62" viewBox="0 0 620 620"><path d="M290 123c0 42-26 73-60 73-26 0-44-15-44-37 0-10 8-23 20-23 4 0 8 2 10 6-6 3-8 10-5 16 4 10 12 13 19 12l-4-4c-2-4 3-7 4-13V150c-1-16-13-25-24-25-17 0-30 15-30 33 0 8 2 16 5 22a50 50 0 00-22-5c-18 0-33 13-33 30 0 11 10 23 25 24h2c6 0 10-6 13-4 2 0 3 2 3 4h1c1-7-3-15-12-20-6-2-13 0-15 6a10 10 0 01-7-10c0-12 12-20 23-20 22 0 37 18 37 43 0 35-31 61-73 61-45 0-77-29-85-75a397 397 0 01-1-25A160 160 0 01 85 84a162 162 0 01 107-48 200 200 0 01 23 1c46 8 75 40 75 85ZM160 30A185 185 0 00 30 160V30h130Zm460 18C620 23 601 4 576 4c-30 0-50 14-70 40v-1a57 57 0 00-4-20A36 36 0 00 474 1a50 50 0 00-8 0c-1 0-2-1-4 0h-4c-10 2-17 8-20 14-5 6-6 12-6 16v6c1 5 5 8 4 12-1 2-2 3-4 3v1c7 1 15-3 19-12 2-6 0-13-5-15a10 10 0 00-6 0 32 32 0 01 10-12l10-4c7 0 17 0 24 6 8 5 12 15 12 27 1 11-4 23-13 32a70 70 0 01-34 18 90 90 0 01-40 1 254 254 0 01-80-26l-35-17a338 338 0 00-62-20h163a5 5 0 10 0-11h-370c-3 0-5 2-5 5v372a5 5 0 10 10 0V230a236 236 0 00 21 63l17 35 17 38c4 14 8 27 10 41 1 14 2 28-2 41-3 13-10 26-18 34-10 10-20 14-32 13-12 0-22-4-27-12C10 477 9 467 10 460c0-3 2-7 4-10a32 32 0 01 11-10v6c3 6 10 7 16 5 10-4 13-12 12-19l-4 4c-4 1-7-3-12-4H30a33 33 0 00-30 27v3c-1 2 0 3 0 4v8c1 5 3 11 7 16 3 6 9 10 15 12 3 2 6 3 10 3l10 2c-25 20-40 40-40 69 0 25 20 44 45 44a30 30 0 00 30-28 20 20 0 00-18-20V570h-3c-5 1-9 5-12 4L40 570c0-1 0-1 0 0-2 7 1 16 11 20 6 3 12 2 16-2v3c0 10-10 18-20 18-20 0-34-15-34-34 0-33 20-53 59-78a60 60 0 00 9-7 88 88 0 00 25-61 182 182 0 00-11-66l-17-40c-10-18-18-36-25-52 17 18 40 29 69 29 46 0 73 20 73 57 0 19-15 40-34 40a20 20 0 01-20-20l1-6c3 5 10 6 15 4 10-4 13-12 12-20l-4 5c-4 1-8-4-13-4H150c-11 0-20 10-20 21a30 30 0 00 30 30c26 0 46-26 46-50 0-32-18-54-50-63 30-11 50-36 50-66a60 60 0 00-8-30 60 60 0 00 30 8c30 0 55-20 66-50 9 32 31 50 63 50 24 0 50-20 50-45a30 30 0 00-30-30 20 20 0 00-21 18v4c0 5 5 9 4 13-1 2-3 3-4 3v1c7 1 15-3 19-12 2-6 0-12-4-15l6-1a20 20 0 01 20 20c0 20-21 34-40 34-36 0-57-27-57-73a90 90 0 00-29-69L324 80l40 17a200 200 0 00 66 10 93 93 0 00 60-24c4-3 6-6 8-10 25-37 45-58 78-58 20 0 34 15 34 34 0 10-8 20-18 20a10 10 0 01-3 0c4-4 5-10 2-16-4-10-13-13-20-12-1 0-1 0 0 0v1l4 4c2 4-3 7-4 13v2a20 20 0 00 21 17 30 30 0 00 28-30Z" fill="#6A7078"/><path d="M229 246c1-4-6-17-3-20 3-3 16 4 20 3 16-5 28 3 33 19 0 2 0 5-4 10 2 4 4 7 8 10 5 2 15-5 18-7h2s1 0 0 1c-4 8-14 13-25 16-3 10-8 20-16 25-1 1-2 0-2 0V300c3-3 10-13 7-18-1-4-5-6-9-8-3 3-8 4-10 4-16-5-24-17-20-33Zm85 47a280 280 0 01 24 45s-38-16-45-24c-8-7-10-18-3-24 6-6 17-5 24 3Zm7-80c9 0 16 5 16 10 0 4-7 8-16 8-9 0-41-9-41-9s32-8 40-8Zm-90 108c0 8-4 16-9 16-4 0-8-8-8-16 0-10 8-41 8-41s10 32 10 40Zm101-48c0 2-4 4-8 4l-21-4 20-5c5 0 10 2 10 5Zm-55 50c0 5-2 10-4 10-3 0-5-5-5-10l5-20 4 20Z" fill="#6A7078"/><path d="M320 243c6 0 11 3 11 6 0 4-5 7-11 7-6 0-30-7-30-7s24-6 30-6ZM256 320c0 6-3 11-7 11-3 0-6-5-6-11 0-6 6-30 6-30s7 24 7 30ZM133 155c-7-8-24-46-24-46s38 17 46 24c7 8 9 19 3 25-6 6-17 4-25-3Z" fill="#6A7078"/></svg>
