<svg width="17" height="16" viewBox="0 0 17 16" fill="none" xmlns="http://www.w3.org/2000/svg">
<path fill-rule="evenodd" clip-rule="evenodd" d="M3.83333 4.5C3.61232 4.5 3.40036 4.5878 3.24408 4.74408C3.0878 4.90036 3 5.11232 3 5.33333L3 12.6667C3 12.8877 3.0878 13.0996 3.24408 13.2559C3.40036 13.4122 3.61232 13.5 3.83333 13.5L11.1667 13.5C11.3877 13.5 11.5996 13.4122 11.7559 13.2559C11.9122 13.0996 12 12.8877 12 12.6667L12 8.66667C12 8.39052 12.2239 8.16667 12.5 8.16667C12.7761 8.16667 13 8.39052 13 8.66667L13 12.6667C13 13.1529 12.8068 13.6192 12.463 13.963C12.1192 14.3068 11.6529 14.5 11.1667 14.5L3.83333 14.5C3.3471 14.5 2.88079 14.3068 2.53697 13.963C2.19315 13.6192 2 13.1529 2 12.6667L2 5.33333C2 4.8471 2.19315 4.38079 2.53697 4.03697C2.88079 3.69315 3.3471 3.5 3.83333 3.5L7.83333 3.5C8.10948 3.5 8.33333 3.72386 8.33333 4C8.33333 4.27614 8.10948 4.5 7.83333 4.5L3.83333 4.5Z" fill="#B2B7BD"/>
<path fill-rule="evenodd" clip-rule="evenodd" d="M9.33398 2.66602C9.33398 2.38987 9.55784 2.16602 9.83398 2.16602L13.834 2.16602C14.1101 2.16602 14.334 2.38987 14.334 2.66602V6.66602C14.334 6.94216 14.1101 7.16602 13.834 7.16602C13.5578 7.16602 13.334 6.94216 13.334 6.66602V3.16602L9.83398 3.16602C9.55784 3.16602 9.33398 2.94216 9.33398 2.66602Z" fill="#B2B7BD"/>
<path fill-rule="evenodd" clip-rule="evenodd" d="M14.1862 2.31246C14.3815 2.50772 14.3815 2.82431 14.1862 3.01957L7.51957 9.68623C7.32431 9.8815 7.00772 9.8815 6.81246 9.68623C6.6172 9.49097 6.6172 9.17439 6.81246 8.97913L13.4791 2.31246C13.6744 2.1172 13.991 2.1172 14.1862 2.31246Z" fill="#B2B7BD"/>
</svg>
