<svg width="22" height="22" viewBox="0 0 22 22" fill="none" xmlns="http://www.w3.org/2000/svg">
    <path
        d="M10.9972 7.49851C9.06916 7.49851 7.49575 9.07195 7.49575 11C7.49575 12.9281 9.06916 14.5015 10.9972 14.5015C12.9252 14.5015 14.4986 12.9281 14.4986 11C14.4986 9.07195 12.9252 7.49851 10.9972 7.49851ZM21.4988 11C21.4988 9.55002 21.512 8.11317 21.4305 6.66582C21.3491 4.98469 20.9656 3.49268 19.7363 2.26335C18.5044 1.03139 17.015 0.650507 15.3339 0.569077C13.8839 0.487647 12.4471 0.500781 10.9998 0.500781C9.54985 0.500781 8.11303 0.487647 6.66571 0.569077C4.9846 0.650507 3.49262 1.03402 2.26331 2.26335C1.03138 3.4953 0.650505 4.98469 0.569076 6.66582C0.487648 8.1158 0.500781 9.55265 0.500781 11C0.500781 12.4474 0.487648 13.8868 0.569076 15.3342C0.650505 17.0153 1.03401 18.5073 2.26331 19.7367C3.49525 20.9686 4.9846 21.3495 6.66571 21.4309C8.11566 21.5124 9.55248 21.4992 10.9998 21.4992C12.4498 21.4992 13.8866 21.5124 15.3339 21.4309C17.015 21.3495 18.507 20.966 19.7363 19.7367C20.9682 18.5047 21.3491 17.0153 21.4305 15.3342C21.5146 13.8868 21.4988 12.45 21.4988 11ZM10.9972 16.3875C8.01584 16.3875 5.60976 13.9814 5.60976 11C5.60976 8.01861 8.01584 5.61248 10.9972 5.61248C13.9785 5.61248 16.3846 8.01861 16.3846 11C16.3846 13.9814 13.9785 16.3875 10.9972 16.3875ZM16.6052 6.65006C15.9092 6.65006 15.347 6.08793 15.347 5.39184C15.347 4.69574 15.9092 4.13361 16.6052 4.13361C17.3013 4.13361 17.8634 4.69574 17.8634 5.39184C17.8636 5.55713 17.8312 5.72083 17.7681 5.87358C17.7049 6.02633 17.6123 6.16512 17.4954 6.282C17.3785 6.39888 17.2397 6.49155 17.087 6.55471C16.9342 6.61787 16.7705 6.65027 16.6052 6.65006Z"
        fill="#FFFFFF" />
</svg>