<?xml version="1.0" encoding="utf-8"?>
<!-- Generator: Adobe Illustrator 27.0.0, SVG Export Plug-In . SVG Version: 6.00 Build 0)  -->
<svg version="1.1" id="Layer_2_00000137105871060914488380000003316305746880890511_"
	 xmlns="http://www.w3.org/2000/svg" xmlns:xlink="http://www.w3.org/1999/xlink" x="0px" y="0px" viewBox="0 0 398.7 398.7"
	 style="enable-background:new 0 0 398.7 398.7;" xml:space="preserve">
<style type="text/css">
	.st0{fill:#FFFFFF;}
</style>
<path class="st0" d="M199.3,0C89.2,0,0,89.2,0,199.3s89.2,199.3,199.3,199.3s199.3-89.2,199.3-199.3S309.4,0,199.3,0z M320.4,170.6
	c-24.8,0-47.9-7.9-66.7-21.4v97.4c0,48.6-39.6,88.2-88.2,88.2c-18.8,0-36.2-5.9-50.5-16c-22.7-16-37.7-42.4-37.7-72.2
	c0-48.6,39.6-88.2,88.2-88.2c4,0,8,0.3,11.9,0.9v48.9c-3.8-1.2-7.7-1.9-11.9-1.9c-22.2,0-40.3,18.1-40.3,40.3
	c0,15.5,8.8,28.9,21.6,35.6c5.6,2.9,11.9,4.6,18.7,4.6c21.7,0,39.4-17.3,40.2-38.8l0.1-192h47.9c0,4.1,0.4,8.2,1.1,12.2
	c3.4,18.3,14.2,33.9,29.2,43.7l0,0c10.5,6.8,22.9,10.8,36.3,10.8V170.6z"/>
</svg>
