<svg width="25" height="24" viewBox="0 0 25 24" fill="none" xmlns="http://www.w3.org/2000/svg">
    <path
        d="M23.2923 6.34418C23.1642 5.84654 22.914 5.39271 22.5665 5.02786C22.2189 4.66301 21.7862 4.39986 21.3114 4.2646C19.5509 3.75825 12.5078 3.75001 12.5078 3.75001C12.5078 3.75001 5.46577 3.74177 3.70414 4.22574C3.22964 4.36722 2.79783 4.63409 2.45016 5.00074C2.1025 5.36738 1.85065 5.82148 1.7188 6.31945C1.2545 8.16351 1.25 11.9882 1.25 11.9882C1.25 11.9882 1.2455 15.8318 1.70643 17.657C1.965 18.6662 2.72383 19.4634 3.6884 19.7354C5.46689 20.2418 12.4909 20.25 12.4909 20.25C12.4909 20.25 19.5341 20.2582 21.2946 19.7754C21.7695 19.6404 22.2026 19.3779 22.551 19.0138C22.8994 18.6497 23.1511 18.1966 23.281 17.6994C23.7465 15.8565 23.7498 12.033 23.7498 12.033C23.7498 12.033 23.7723 8.18824 23.2923 6.34418ZM10.2549 15.5315L10.2605 8.46614L16.1142 12.0047L10.2549 15.5315Z"
        fill="#FFFFFF" />
</svg>